<?xml version="1.0" encoding="utf-8"?>
<!-- Generator: Adobe Illustrator 23.0.3, SVG Export Plug-In . SVG Version: 6.00 Build 0)  -->
<svg version="1.1" id="Capa_1" xmlns="http://www.w3.org/2000/svg" xmlns:xlink="http://www.w3.org/1999/xlink" x="0px" y="0px"
	 viewBox="0 0 187 187" style="enable-background:new 0 0 187 187;" xml:space="preserve">
<style type="text/css">
	.st0{fill:#010101;}
	.st1{fill:#030303;}
	.st2{fill:#4CB5AB;}
	.st3{fill:#FF5454;}
</style>
<g>
	<path class="st1" d="M159.1,98.2c5.9,2.8,12.9,5.6,19,10.1c1.8,1.3,1.6,3.7,0.3,5.6c-1.3,2-3.4,2.6-5.4,1.7
		c-6.1-2.8-12.1-5.9-18-9.1c-1.8-1-2.8-3-1.8-5.3C154.2,99,155.7,97.9,159.1,98.2z"/>
	<path class="st1" d="M156.3,41.1c-3.2,6.2-5.9,13.3-10.5,19.3c-1.3,1.8-3.8,1.6-5.6,0.3c-1.7-1.3-2.8-3.2-1.7-5.4
		c3-6,6-12.1,9.2-18c1.1-1.9,3.2-2.6,5.4-1.8C155.1,36.5,156.2,38.2,156.3,41.1z"/>
	<path class="st1" d="M179.9,71.8c-0.2,2.3-1.5,3.9-3.9,4.7c-5.6,1.9-11.2,3.8-16.8,5.6c-2.9,0.9-5.4-0.1-6.5-3
		c-1.1-3.1,0.6-5.2,3.5-6.2c5.6-1.9,11.2-3.8,16.9-5.4C176.9,66.5,179.7,68.4,179.9,71.8z"/>
	<path d="M153.1,126c-9.4-28.5-18.6-57-27.7-85.5c-1.6-5-4.3-6.7-9.2-5c-5.2,1.8-10.5,3.4-15.8,5.2c-3.7,1.2-6.4,3-4.8,7.6
		c0.7,2-0.3,3.1-1.8,4.1c-22.4,14.2-40.3,35.5-67.5,42c-4.2,1-5.4,3.7-4,8c3.7,11.1,7.3,22.2,10.8,33.4c1.7,5.5,4.7,6.7,10.3,4.9
		c7.3-2.5,14.4-6,22.6-5.6c3.3,0.1,4.9,1,6.3,4.2c3.7,8.1,10.2,12.9,19.3,13c9.1,0.1,15.9-4.4,19.8-12.4c1.7-3.6,3.5-5.2,7.6-4.2
		c2.9-0.9,5-0.1,6.3,3.3c1.1,3,3.9,3.2,6.8,2.2c5.4-1.9,10.8-3.9,16.4-5.4C154.1,134.2,154.8,131.2,153.1,126z M50.9,129.8l-6.6,2.2
		c-1.3,0.4-2.7-0.3-3.2-1.6l-8.8-27c-0.4-1.3,0.3-2.7,1.6-3.2l6.6-2.2c1.3-0.4,2.7,0.3,3.2,1.6l8.8,27
		C52.9,128,52.2,129.4,50.9,129.8z M93.2,142.4c-5,0.6-9.1-1.6-12.2-7c7.4,0,14.1,0,21.2,0C101,140.4,97.2,142,93.2,142.4z
		 M65.9,125.5c-2.3,0-3.1-0.9-3.8-3c-2.6-8.4-5.5-16.8-8.2-25.2c-0.6-1.9-0.5-3.4,1.3-4.8c14.6-10.6,29.1-21.3,44.1-32.3
		c7.1,22,14.1,43.4,21.2,65.2C102.1,125.4,84,125.4,65.9,125.5z M140.9,128.9l-5.4,1.8c-1.4,0.4-2.8-0.3-3.3-1.7l-25.7-78.5
		c-0.4-1.4,0.3-2.8,1.7-3.3l5.4-1.8c1.4-0.4,2.8,0.3,3.3,1.7l25.7,78.5C143,127,142.2,128.5,140.9,128.9z"/>
</g>
</svg>
